<svg xmlns="http://www.w3.org/2000/svg" viewBox="0 0 100 100">
  <rect width="100" height="100" rx="22" fill="#FFF7E8"/>
  <circle cx="38" cy="44" r="19" fill="#F3E3C3" stroke="#3B2A20" stroke-width="4"/>
  <path d="M32 26c2-7 9-8 12-3" fill="none" stroke="#7E5029" stroke-width="5" stroke-linecap="round"/>
  <circle cx="32" cy="44" r="3" fill="#3B2A20"/>
  <circle cx="45" cy="44" r="3" fill="#3B2A20"/>
  <path d="M35 52q3 3 7 0" fill="none" stroke="#3B2A20" stroke-width="3" stroke-linecap="round"/>
  <path d="M62 82V58a12 12 0 0 1 24 0v24z" fill="#A8703E" stroke="#3B2A20" stroke-width="4"/>
  <path d="M64 58l-3-11 10 6zM84 58l3-11-10 6z" fill="#A8703E" stroke="#3B2A20" stroke-width="4"/>
  <circle cx="70" cy="68" r="3" fill="#3B2A20"/>
  <circle cx="79" cy="68" r="3" fill="#3B2A20"/>
  <path d="M72 75q2 3 5 0" fill="none" stroke="#3B2A20" stroke-width="3" stroke-linecap="round"/>
</svg>
